<svg xmlns="http://www.w3.org/2000/svg" version="1.1" xmlns:xlink="http://www.w3.org/1999/xlink" xmlns:svgjs="http://svgjs.com/svgjs" width="16" height="16" x="0" y="0" viewBox="0 0 512 512" style="enable-background:new 0 0 512 512" xml:space="preserve" class=""><g><g xmlns="http://www.w3.org/2000/svg"><g><path d="m417.249 350.751h-253.857v-189.502h253.857c52.33 0 94.751 42.421 94.751 94.751 0 52.33-42.421 94.751-94.751 94.751z" fill="#ff4f6b" data-original="#ff4f6b" class=""></path><path d="m417.249 161.249h-30.905c52.329 0 94.751 42.421 94.751 94.751 0 52.33-42.422 94.751-94.751 94.751h30.905c52.329 0 94.751-42.421 94.751-94.751 0-52.33-42.422-94.751-94.751-94.751z" fill="#fb2b3a" data-original="#fb2b3a" class=""></path><g fill="#fff"><path d="m303.605 282.447c-.015 0-.029 0-.044 0-5.617.031-11.651.054-16.203.057v-60.734c0-4.268-3.459-7.726-7.726-7.726-4.268 0-7.726 3.459-7.726 7.726v68.403c0 3.764 2.711 6.979 6.421 7.615.556.096 17.5.155 25.322.112 4.267-.024 7.707-3.502 7.683-7.77-.026-4.253-3.48-7.683-7.727-7.683z" fill="#ffffff" data-original="#ffffff" class=""></path><path d="m330.338 214.043c-4.268 0-7.726 3.459-7.726 7.726v68.461c0 4.268 3.459 7.726 7.726 7.726 4.268 0 7.726-3.459 7.726-7.726v-68.46c0-4.268-3.458-7.727-7.726-7.727z" fill="#ffffff" data-original="#ffffff" class=""></path><path d="m461.069 282.192h-20.857v-18.466h18.749c4.268 0 7.726-3.459 7.726-7.726s-3.459-7.726-7.726-7.726h-18.749v-18.466h20.857c4.268 0 7.726-3.459 7.726-7.726 0-4.268-3.459-7.726-7.726-7.726h-28.584c-4.268 0-7.726 3.459-7.726 7.726v67.837c0 4.268 3.459 7.726 7.726 7.726h28.584c4.268 0 7.726-3.459 7.726-7.726s-3.458-7.727-7.726-7.727z" fill="#ffffff" data-original="#ffffff" class=""></path><path d="m408.187 214.563c-4.046-1.346-8.423.845-9.768 4.896l-16.613 50.007-17.436-50.23c-1.398-4.032-5.803-6.17-9.832-4.766-4.031 1.398-6.165 5.801-4.766 9.832l23.426 67.49c1.314 3.694 4.819 6.165 8.735 6.165.022 0 .043 0 .065-.001 3.942-.027 7.444-2.553 8.73-6.338l22.353-67.288c1.349-4.048-.845-8.422-4.894-9.767z" fill="#ffffff" data-original="#ffffff" class=""></path></g></g><g><circle cx="120.466" cy="256" fill="#ff4f6b" r="120.466" data-original="#ff4f6b" class=""></circle><path d="m120.466 135.534c-5.235 0-10.392.337-15.453.988 59.155 7.608 105.014 58.288 105.014 119.478s-45.86 111.87-105.014 119.478c5.061.651 10.218.988 15.453.988 66.425 0 120.467-54.04 120.467-120.466 0-66.425-54.041-120.466-120.467-120.466z" fill="#fb2b3a" data-original="#fb2b3a" class=""></path><ellipse cx="120.467" cy="256" fill="#ffffff" rx="89.56" ry="89.561" transform="matrix(.16 -.987 .987 .16 -151.524 333.905)" data-original="#ffffff" class=""></ellipse><path d="m95.54 291.375v-70.751c0-7.166 8.153-11.282 13.92-7.028l47.945 35.375c4.731 3.491 4.731 10.565 0 14.056l-47.945 35.375c-5.767 4.256-13.92.139-13.92-7.027z" fill="#ff4f6b" data-original="#ff4f6b" class=""></path><path d="m157.404 248.972-47.945-35.375c-5.766-4.254-13.92-.138-13.92 7.028v5.505c20.109 14.837 20.109 44.904 0 59.741v5.505c0 7.166 8.153 11.282 13.92 7.028l47.945-35.375c4.731-3.492 4.731-10.566 0-14.057z" fill="#fb2b3a" data-original="#fb2b3a" class=""></path></g></g></g></svg>